# xmcd
#
# Track frame offsets:
#	150
#	11421
#	26065
#	38068
#	54311
#	64823
#	79606
#	96179
#	109547
#	122463
#	138672
#	154831
#	170737
#	186592
#	200298
#	214537
#	223558
#	237783
#	255400
#	268184
#	280373
#	292508
#	304413
#
# Disc length: 4169
#
# Revision: 1
# Processed by: cddbd v1.5.1PL0 Copyright (c) Steve Scherf et al.
# Submitted via: dBpowerAMP V4.0
# Normalized: r0:TRMNUM
#
DISCID=46104717
DTITLE=Classicos Sertanejos - Vol. 3
DYEAR=1900
DGENRE=Seranejo
TTITLE0=Assina Com x (Gilberto e Gilmar)
TTITLE1=Boneca cobiçada (Palmeira e Biá)
TTITLE2=Caboclo centanário (Dino Franco e Mourai)
TTITLE3=Canarinho prisioneiro (Praião e prainha)
TTITLE4=Dona saudade (Liu e Leo)
TTITLE5=No colo da noite (Zé do Rancho e Zé do Pinho)
TTITLE6=Porta do mundo (Peão Carreiro e Pardinho)
TTITLE7=O mineiro e o italiano (Tião Carreiro e Pardinho)
TTITLE8=Meu endereço (Cezar e Paulinho)
TTITLE9=Meu velho pai (Léo Canhoto e Robertinho)
TTITLE10=Sonho de um caminhoneiro (Milionario e José Rico)
TTITLE11=Vestido molhado (Mococa e Moracy)
TTITLE12=Lembraça (Zé Fortuna e Pitangueira)
TTITLE13=Moreninha linda (Tonico e Tinoco)
TTITLE14=Poeira da estrada (João Paulo e Daniel)
TTITLE15=Começo do fim (Tião Carreiro e Pardinho)
TTITLE16=Disco voador (Palmeira e Biá)
TTITLE17=Eu, a viola e Deus (Rolando Boldrin)
TTITLE18=Expresso boiadeiro (Trio da viola)
TTITLE19=Coração da patria (Silveira e Silveirinha)
TTITLE20=Destinos iguais (Tonico e Tinoco)
TTITLE21=Dama de vermelho (Pedro Bento e Zé da Estrada)
TTITLE22=Ladrão de mulher (Vieira e Vieirinha)
EXTD=
EXTT0=
EXTT1=
EXTT2=
EXTT3=
EXTT4=
EXTT5=
EXTT6=
EXTT7=
EXTT8=
EXTT9=
EXTT10=
EXTT11=
EXTT12=
EXTT13=
EXTT14=
EXTT15=
EXTT16=
EXTT17=
EXTT18=
EXTT19=
EXTT20=
EXTT21=
EXTT22=
PLAYORDER=
